<svg width="60" height="60" viewBox="0 0 60 60" fill="none" xmlns="http://www.w3.org/2000/svg">
<circle cx="30" cy="30" r="28.2314" fill="#FEDC33" stroke="#2070DC" stroke-width="3.53719"/>
<circle cx="29.9993" cy="29.9993" r="23.0578" fill="#2070DC"/>
<g clip-path="url(#clip0_672_33458)">
<path d="M39.1725 37.4226C39.1939 36.615 38.5441 35.8182 37.7357 35.8182H32.3147C32.044 35.8177 31.779 35.7407 31.5501 35.5963C31.3212 35.4518 31.1377 35.2456 31.0208 35.0014C30.9039 34.7573 30.8583 34.4851 30.8893 34.2162C30.9202 33.9473 31.0265 33.6926 31.1958 33.4814L38.5449 23.6501C38.7293 23.4004 38.8278 23.0976 38.8256 22.7872V19.694C38.8256 19.3129 38.6743 18.9475 38.4048 18.678C38.1354 18.4086 37.7699 18.2572 37.3889 18.2572H34.5979C34.2167 18.2572 33.8512 18.1059 33.5816 17.8364C33.312 17.567 33.1605 17.2016 33.1602 16.8204V15.3225C33.1602 14.9415 33.0089 14.576 32.7394 14.3066C32.47 14.0371 32.1045 13.8857 31.7235 13.8857H28.314C27.9329 13.8857 27.5675 14.0371 27.298 14.3066C27.0286 14.576 26.8772 14.9415 26.8772 15.3225V16.8204C26.877 17.2016 26.7254 17.567 26.4558 17.8364C26.1863 18.1059 25.8207 18.2572 25.4396 18.2572H22.6709C22.2994 18.2573 21.9424 18.4013 21.6747 18.6588C21.407 18.9163 21.2494 19.2675 21.2349 19.6387L21.116 22.6997C21.1087 22.8928 21.1404 23.0855 21.2093 23.2661C21.2781 23.4467 21.3827 23.6115 21.5168 23.7508C21.6508 23.89 21.8116 24.0007 21.9895 24.0764C22.1674 24.152 22.3587 24.191 22.552 24.191H30.2693L30.3081 24.2678L28.4197 26.6575L21.1119 36.4507C20.9262 36.6988 20.826 37.0004 20.8262 37.3103V40.406C20.8261 40.5948 20.8632 40.7818 20.9354 40.9563C21.0076 41.1308 21.1135 41.2893 21.247 41.4228C21.3805 41.5563 21.539 41.6622 21.7135 41.7344C21.888 41.8066 22.075 41.8437 22.2638 41.8436H25.4396C25.8207 41.8436 26.1863 41.995 26.4558 42.2644C26.7254 42.5338 26.877 42.8993 26.8772 43.2804V44.263C26.8772 44.6441 27.0286 45.0096 27.298 45.279C27.5675 45.5485 27.9329 45.6998 28.314 45.6998H31.7235C31.9121 45.6998 32.099 45.6627 32.2733 45.5905C32.4476 45.5183 32.606 45.4124 32.7394 45.279C32.8728 45.1456 32.9787 44.9872 33.0509 44.8129C33.1231 44.6386 33.1602 44.4517 33.1602 44.263V43.2821C33.1605 42.9009 33.312 42.5355 33.5816 42.2661C33.8512 41.9966 34.2167 41.8453 34.5979 41.8453H37.6531C38.0277 41.8452 38.3875 41.6989 38.6559 41.4374C38.9243 41.176 39.08 40.8202 39.0899 40.4456L39.1725 37.4226Z" fill="#FFDE06"/>
<path d="M37.028 38.6618H25.0945C24.9712 38.6616 24.8531 38.6125 24.766 38.5254C24.6788 38.4382 24.6298 38.3201 24.6296 38.1969V37.206C24.6299 37.0247 24.6939 36.8494 24.8104 36.7105L35.5401 23.9364C35.7668 23.6661 35.8913 23.3247 35.8918 22.9719V21.9381C35.8914 21.6461 35.7752 21.3663 35.5687 21.1599C35.3622 20.9536 35.0822 20.8376 34.7903 20.8374H30.2413V15.9209H29.7566V20.8374H23.0078V21.3229H34.7903C34.9535 21.3229 35.1101 21.3877 35.2256 21.503C35.3411 21.6184 35.4061 21.7748 35.4063 21.9381V22.9719C35.4063 23.2103 35.322 23.441 35.1685 23.6234L24.4388 36.3968C24.2486 36.6236 24.1443 36.91 24.144 37.206V38.1969C24.1445 38.4488 24.2447 38.6903 24.4229 38.8684C24.601 39.0466 24.8425 39.1469 25.0945 39.1473H29.7566V44.0638H30.2413V39.1473H37.028V38.6618Z" fill="#4174B9"/>
</g>
<defs>
<clipPath id="clip0_672_33458">
<rect width="18.3471" height="31.8157" fill="white" transform="translate(20.8262 13.8857)"/>
</clipPath>
</defs>
</svg>
